<?xml version="1.0" encoding="UTF-8"?><svg id="Layer_2" xmlns="http://www.w3.org/2000/svg" viewBox="0 0 399.26 197.76"><defs><style>.cls-1{fill:#fff;}.cls-2{fill:#ff1d25;}.cls-3{fill:#00bf94;}</style></defs><g id="Layer_1-2"><path d="M189.1,152.82v-59.38c0-4.69,3.81-8.5,8.5-8.5h0c4.69,0,8.5,3.81,8.5,8.5v59.38c0,4.69-3.81,8.5-8.5,8.5h0c-4.69,0-8.5-3.81-8.5-8.5Z"/><g><path d="M268.1,72.22v-9.65c-.15,2.23-.2,5.14,0,9.65Z"/><g><path d="M310.04,48.78c-.12,.31-.32,.6-.36,.91-.37,2.94-2.37,3.12-4.74,2.98-3.14-.19-6.28-.18-9.42-.27-1.73-.06-2.16-.58-2.14-2.33,.02-2.84,0-5.69,0-8.66-4.63,0-9.13-.03-13.63,.03-1.27,0-1.89-.2-1.87-1.69,.05-3.09-.06-3.13-2-6.67,.83-.05,1.56-.13,2.29-.13,4.87,.05,9.73,.13,14.6,.14,.27,0,.77-.6,.79-.94,.12-2.9,.14-5.81,.23-8.71,.06-1.73,.59-2.2,2.34-2.16,3.87,.07,7.74,.25,11.6,.2,1.24-.02,1.75,.49,1.97,1.45,.82,3.52,1.84,7.01,2.29,10.58,.65,5.2-.13,10.33-1.95,15.27h0Z"/><path d="M266.17,38.49c.98,.79,1.93,1.56,2.89,2.34v.56c-2.33,.23-4.67,.68-7,.67-9.36-.02-18.72-.18-28.08-.28-1.32-.02-2.64,0-4.41,0,0,2.52,.03,4.94,0,7.36-.05,3.68-.06,3.67-3.61,3.61-3.66-.06-7.32-.06-10.98-.19-.45,0-1.1-.52-1.28-.95-3.23-8.02-4.02-16.2-1.34-24.55,.5-1.56,.95-3.14,1.59-4.64,.19-.47,.93-1,1.42-1.01,3.26-.02,6.51,.09,9.77,.15,.82,.01,1.64,.01,2.46-.02,1.66-.05,2.28,.62,2.26,2.36-.04,3.09,0,6.18,0,9.56,2.15,0,4.27,0,6.39,0,3.4,0,6.8-.07,10.2,.02,.7,.02,1.51,.48,2.04,.97,1.48,1.37,3.09,1.8,4.93,1.03,2.49,3.88,4.37,4.47,7.4,2.25,1.54,1.66,3.39,1.73,5.36,.77Z"/><path d="M249.37,31.63c0-.27,0-.55,0-.82,0-2.35,1.43-3.34,3.6-2.43,.37,.15,.67,.72,.77,1.15,.15,.67,.16,1.4,.14,2.1-.04,1.61-1,2.64-2.33,2.58-1.31-.06-2.13-1.03-2.18-2.58h0Z"/><path d="M261.65,35.39c-.1-2.35-.01-4.71,.01-7.06,0-1.05,.58-1.38,1.59-1.4,2.48-.05,3.15,.43,2.87,2.27-.04,.3-.41,.63-.72,.8-1.01,.54-1.77,3.09-1.3,4.8,.2,.72,.57,1.4,.91,2.21-1.87,.86-3.29,.19-3.36-1.62h0Z"/><path d="M255.57,34.69c0-.52-.02-1.05-.02-1.57v-1.44h.08c0-.87-.06-1.73,.02-2.59,.07-.7,.18-1.92,.49-1.99,1.08-.26,2.25-.19,3.37-.05,.23,.03,.5,.91,.51,1.4,.02,2.08-.03,4.15-.08,6.23-.04,1.53-1.03,2.65-2.29,2.66-1.35,0-2.09-.95-2.08-2.65h0Z"/><path d="M267.92,28.03c.04-1.19,1.12-1,2.02-.97,2.67,.09,2.67,.06,2.63,2.66v2.88c-1.31-.47-2.4-.94-3.54-1.25-2.05-.57-1.15-2.16-1.11-3.32Z"/><path d="M276.04,46.53c-.08,.77-1.14,1.54-1.91,2.11-1.33,1.01-2.85,1.78-4.15,2.81-.55,.43-1.04,1.29-1.06,1.97-.11,3.8-.59,5.6-.82,9.15-.15,2.23-.2,5.14,0,9.65h0v76.2c0,7.13-3.81,12.9-8.5,12.9-2.34,0-4.47-1.44-6.01-3.78-1.54-2.33-2.49-5.55-2.49-9.12V63.22l-2-19.79h8.17c1.08,0,1.81,1.12,1.36,2.09,.32-.06,.64-.09,.97-.09s.68,.03,1.02,.1c1.03-1.07,2.56-1.64,4.92-2.05,1.61-.29,3.19-.71,4.79-1.09,.33-.07,.57-.34,.63-.67,.21-1.27-.12-2.23-1.45-3.02-1.1-.66-2.01-1.72-2.86-2.71-.86-1.01-1.36-2.13-.86-3.45,.15-.42,.64-.6,1.05-.44,2.42,.94,4.83,1.82,7.16,2.89,1.42,.66,2.18,2.04,2.2,3.64,.02,2.63,.1,5.28-.16,7.9h0Z"/></g></g><path class="cls-2" d="M198.09,65.41c.73-.44,1.46-.87,2.18-1.3,1.02-.6,2.16-.81,3.3-.76,1.45,.06,2.77,.54,3.72,1.73,.7,.88,1.14,1.89,1.34,3,.19,1.06,.17,2.12,0,3.17-.35,2-.98,3.92-1.96,5.69-.78,1.41-1.68,2.76-2.56,4.11-.65,1-2.01,1.26-3.06,.98-.77-.21-1.55-.43-2.34-.57-.57-.1-1.15-.13-1.73,.15-.42,.2-.93,.2-1.4,.29-.4,.08-.8,.2-1.21,.22-.79,.05-1.45-.29-1.92-.89-2.09-2.63-3.6-5.57-4.43-8.83-.41-1.63-.58-3.3-.05-4.96,.66-2.05,2-3.35,4.12-3.79,.43-.09,.91,.03,1.36-.02,1.83-.19,3.26,.64,4.65,1.78Z"/><path class="cls-3" d="M204.41,57.81c.18,2.07-1.03,4.87-3.38,5.52-.53,.15-1.09,.31-1.65,.09-.49-.2-.61-.48-.37-.97,.17-.34,.38-.66,.57-.99,.05-.09,.08-.19,.07-.31-.62,.29-.91,.86-1.13,1.43-.23,.58-.33,1.22-.52,1.95-.64-.99-.95-1.96-.8-3.02,.24-1.75,1.34-2.89,3.22-3.24,1.3-.24,2.64-.31,3.99-.45h0Z"/><g><path d="M176.55,26.05h-60v1h-6v2.42h1.88v1.03h-1.88v2.34h1.9v.87c0,.23-.13,.18-.23,.18h-1.67v2.31h1.9v.87c0,.23-.13,.18-.23,.18h-1.67v2.31h1.92c0,.3,.01,.6-.01,.9,0,.06-.14,.15-.22,.15h-1.7v2.59h.42c1.39,0,2.77-.02,4.16-.03q.36,0,.36,.48v.59c-.11,0-.18,.02-.26,.02-1.56,0-3.12,.02-4.68,.03v2.31h1.88v1.03h-1.88v2.34h1.9v.87c0,.23-.13,.18-.23,.18h-1.67v2.31h1.9v.87c0,.23-.13,.18-.23,.18h-1.67v2.31h1.92c0,.3,.01,.6-.01,.9,0,.06-.14,.15-.22,.15h-1.7v2.59h.42c1.39,0,2.77-.02,4.16-.03q.36,0,.36,.48v.59c-.11,0-.18,.02-.26,.02-1.56,0-3.12,.02-4.68,.03v2.31h1.88v1.03h-1.88v2.34h1.9v.87c0,.23-.13,.18-.23,.18h-1.67v2.31h1.9v.87c0,.23-.13,.18-.23,.18h-1.67v2.31h1.92c0,.3,.01,.6-.01,.9,0,.06-.14,.15-.22,.15h-1.7v1.59h.42c1.39,0,2.77-.02,4.16-.03q.36,0,.36,.48v.59c-.11,0-.18,.02-.26,.02-1.56,0-3.12,.02-4.68,.03v2.31h1.88v1.03h-1.88v2.34h1.9v.87c0,.23-.13,.18-.23,.18h-1.67v2.31h1.9v.87c0,.23-.13,.18-.23,.18h-1.67v2.31h1.92c0,.3,.01,.6-.01,.9,0,.06-.14,.15-.22,.15h-1.7v2.31h4.96v.9l-.11,.14c-.05,.03-.11,.02-.17,.02-1.56,0-3.12,0-4.67,.01v2.31h1.92v1.02h-1.92v2.34h1.93v1.03h-1.93v2.33h1.92v1.03h-1.92v2.32h1.92v1.05h-1.92v2.32h4.98v1.04h-4.98v2.33h1.94v1.02h-1.94v2.34h1.94v1.04h-1.94v2.32h1.93v1.04h-1.93v2.33h1.96v1.03h-1.96v2.31h5v1.03h-5v2.34h1.97v1.03h-1.97v2.33h1.97v1.03h-1.97v2.33h1.97v1.03h-1.97v2.33h1.98v1.05h-1.98v2.04h5v1.03h-5v2.34h1.97v1.03h-1.97v2.33h1.97v1.03h-1.97v2.33h1.97v1.03h-1.97v2.33h1.98v1.05h-1.98v2.04h5v1.03h5c3.87,0,7-3.13,7-7v-47c0-3.87,3.13-7,7-7h38c3.87,0,7-3.13,7-7s-3.13-7-7-7h-38.39c-3.65,0-6.61-2.96-6.61-6.61l1-31.77c0-3.65,2.96-6.61,6.61-6.61h41.39c3.87,0,7-3.13,7-7v-1c0-3.87-3.13-7-7-7h.03Z"/><path class="cls-1" d="M115.4,94.33l.11-.14v-.9h-4.96v1.07c1.56,0,3.12,0,4.67-.01,.06,0,.12,.01,.17-.02h.01Z"/><path class="cls-1" d="M115.53,110.11h-4.98v1.04h4.98v-1.04Z"/><path class="cls-1" d="M115.55,126.93h-5v1.03h5v-1.03Z"/><path class="cls-1" d="M115.55,143.47h-5v1.03h5v-1.03Z"/><path class="cls-1" d="M110.55,160.02v1.03h5v-1.03h-5Z"/><path class="cls-1" d="M115.48,77.48v-.59q0-.48-.36-.48c-1.39,0-2.77,.02-4.16,.03h-.42v1.08l4.68-.03c.07,0,.15,0,.26-.02h0Z"/><path class="cls-1" d="M112.46,96.67h-1.92v1.02h1.92v-1.02Z"/><path class="cls-1" d="M112.47,100.03h-1.93v1.03h1.93v-1.03Z"/><path class="cls-1" d="M112.51,123.58h-1.96v1.03h1.96v-1.03Z"/><path class="cls-1" d="M112.52,130.3h-1.97v1.03h1.97v-1.03Z"/><path class="cls-1" d="M112.52,133.67h-1.97v1.03h1.97v-1.03Z"/><path class="cls-1" d="M112.46,90.83c.02-.3,.01-.6,.01-.9h-1.92v1.05h1.7c.08,0,.21-.09,.22-.15h-.01Z"/><path class="cls-1" d="M112.47,103.39h-1.92v1.03h1.92v-1.03Z"/><path class="cls-1" d="M112.43,79.84h-1.88v1.03h1.88v-1.03Z"/><path class="cls-1" d="M112.45,84.07v-.87h-1.9v1.05h1.67c.1,0,.23,.04,.23-.18Z"/><path class="cls-1" d="M112.45,87.44v-.87h-1.9v1.05h1.67c.1,0,.23,.05,.23-.18Z"/><path class="cls-1" d="M115.48,61.37v-.59q0-.48-.36-.48c-1.39,0-2.77,.02-4.16,.03h-.42v1.08l4.68-.03c.07,0,.15,0,.26-.02h0Z"/><path class="cls-1" d="M112.46,74.71c.02-.3,.01-.6,.01-.9h-1.92v1.05h1.7c.08,0,.21-.09,.22-.15h-.01Z"/><path class="cls-1" d="M112.43,63.72h-1.88v1.03h1.88v-1.03Z"/><path class="cls-1" d="M112.45,67.96v-.87h-1.9v1.05h1.67c.1,0,.23,.04,.23-.18Z"/><path class="cls-1" d="M112.45,71.32v-.87h-1.9v1.05h1.67c.1,0,.23,.05,.23-.18Z"/><path class="cls-1" d="M115.48,44.24v-.59q0-.48-.36-.48c-1.39,0-2.77,.02-4.16,.03h-.42v1.08l4.68-.03c.07,0,.15,0,.26-.02h0Z"/><path class="cls-1" d="M112.46,57.58c.02-.3,.01-.6,.01-.9h-1.92v1.05h1.7c.08,0,.21-.09,.22-.15h-.01Z"/><path class="cls-1" d="M112.43,46.59h-1.88v1.03h1.88v-1.03Z"/><path class="cls-1" d="M112.45,50.83v-.87h-1.9v1.05h1.67c.1,0,.23,.04,.23-.18Z"/><path class="cls-1" d="M112.45,54.19v-.87h-1.9v1.05h1.67c.1,0,.23,.05,.23-.18Z"/><path class="cls-1" d="M116.55,26.05h-6v1h6v-1Z"/><path class="cls-1" d="M112.46,40.46c.02-.3,.01-.59,.01-.9h-1.92v1.05h1.7c.08,0,.21-.09,.22-.15h-.01Z"/><path class="cls-1" d="M112.43,29.47h-1.88v1.03h1.88v-1.03Z"/><path class="cls-1" d="M112.45,33.7v-.87h-1.9v1.05h1.67c.1,0,.23,.04,.23-.18Z"/><path class="cls-1" d="M112.45,37.07v-.87h-1.9v1.05h1.67c.1,0,.23,.05,.23-.18Z"/><path class="cls-1" d="M112.47,106.74h-1.92v1.05h1.92v-1.05Z"/><path class="cls-1" d="M112.49,113.49h-1.94v1.02h1.94v-1.02Z"/><path class="cls-1" d="M112.49,116.85h-1.94v1.04h1.94v-1.04Z"/><path class="cls-1" d="M112.48,120.21h-1.93v1.04h1.93v-1.04Z"/><path class="cls-1" d="M112.52,137.03h-1.97v1.03h1.97v-1.03Z"/><path class="cls-1" d="M112.53,140.39h-1.98v1.05h1.98v-1.05Z"/><path class="cls-1" d="M112.52,146.85h-1.97v1.03h1.97v-1.03Z"/><path class="cls-1" d="M112.52,150.21h-1.97v1.03h1.97v-1.03Z"/><path class="cls-1" d="M112.52,153.57h-1.97v1.03h1.97v-1.03Z"/><path class="cls-1" d="M112.53,156.93h-1.98v1.05h1.98v-1.05Z"/></g><path class="cls-3" d="M398.66,192.66h-74.31v-31.91l-1.51-.52c-12.88,12.99-32.16,22.5-57.83,28.51s-52.49,9.02-80.47,9.02c-31.61,0-60.04-3.27-85.3-9.81-25.27-6.54-29.14-11.52-33.14-14.52-8.46-6.8-14.79-18.63-17-26-2.22-7.37-2.9-19.95-2.9-27.88V23.67c0-5.75-2.67-10.59-8-14.52C32.86,5.23,20.13,2.92,0,2.22V0H117.81V2.22c-20.53,1.05-33.62,3.62-39.26,7.72s-8.46,8.68-8.46,13.73V117.98c0,19.18,4.53,33.35,13.59,42.51,9.66,9.77,24.16,17.4,43.48,22.89s41.27,8.24,65.83,8.24c10.27,0,22.44-.79,36.54-2.35,14.09-1.57,27.28-4.19,39.56-7.85,36.84-10.9,55.26-28.38,55.26-52.45V23.67c0-5.32-2.82-10.03-8.46-14.13-5.64-4.1-18.92-6.54-39.86-7.32V0h123.23V2.22c-20.53,.44-33.72,2.92-39.56,7.46-5.84,4.53-8.76,9.11-8.76,13.73V169.38c0,5.06,1.96,9.05,5.89,11.97,3.92,2.92,9.36,4.99,16.31,6.21s15.45,2.22,25.52,3.01v2.09h0Z"/></g></svg>